<?xml version="1.0" encoding="utf-8"?>
<!-- Generator: Adobe Illustrator 16.0.3, SVG Export Plug-In . SVG Version: 6.00 Build 0)  -->
<!DOCTYPE svg PUBLIC "-//W3C//DTD SVG 1.1//EN" "http://www.w3.org/Graphics/SVG/1.1/DTD/svg11.dtd">
<svg version="1.1" id="Capa_1" xmlns="http://www.w3.org/2000/svg" xmlns:xlink="http://www.w3.org/1999/xlink" x="0px" y="0px"
	 width="131.423px" height="212.613px" viewBox="0 0 131.423 212.613" enable-background="new 0 0 131.423 212.613"
	 xml:space="preserve">
<path fill="#867751" d="M62.712,22.717l0.238-1.979c-0.531,0-0.925-0.051-1.188-0.158c-0.581-0.211-0.871-0.58-0.871-1.109
	c0-0.314,0.262-1,0.792-2.055h6.094c0.531,1.158,0.793,1.818,0.793,1.975c0.211,0.583,0.076,0.979-0.396,1.189
	c-0.316,0.107-0.82,0.158-1.506,0.158l0.24,1.979h7.676l0.316-1.979c-0.473,0-0.975-0.106-1.502-0.316
	c-0.314-0.266-0.58-0.555-0.791-0.871l-6.65-16.307h-1.346l-6.491,16.07c-0.21,0.369-0.556,0.738-1.027,1.107
	c-0.527,0.21-0.979,0.316-1.348,0.316l0.158,1.979H62.712z M64.691,9.814l2.218,5.461h-4.356L64.691,9.814z M93.03,27.863
	c5.381,3.324,7.994,4.908,7.836,4.748l1.346-1.504c-0.844-0.475-1.346-0.871-1.504-1.188c-0.262-0.263-0.396-0.579-0.396-0.948
	l0.475-1.188l1.348-2.137l1.107,0.635c1.213,0.735,2.455,1.371,3.719,1.896c1.375,0.527,2.641,0.714,3.801,0.556
	c0.58-0.054,1.188-0.37,1.822-0.949c0.631-0.476,1.133-1.056,1.502-1.741c1.057-1.688,1.293-3.139,0.715-4.354
	c-0.582-1.268-1.268-2.189-2.059-2.771c-0.686-0.636-1.559-1.293-2.613-1.979l-7.838-4.592l-1.266,1.583
	c0.844,0.528,1.348,0.923,1.504,1.188c0.316,0.367,0.424,0.686,0.316,0.948l-0.473,1.11l-5.068,8.547l-0.791,0.871
	c-0.264,0.266-0.607,0.344-1.029,0.237c-0.475-0.104-1.027-0.369-1.66-0.792L93.03,27.863z M106.96,17.574l0.951,0.551
	c1.266,0.794,2.162,1.611,2.689,2.455c0.531,0.844,0.424,1.898-0.314,3.166c-0.791,1.374-1.664,2.004-2.611,1.9
	c-0.951-0.053-2.059-0.449-3.324-1.186l-1.109-0.716L106.96,17.574z M38.65,10.843c0.473,0,0.79,0.134,0.948,0.396
	c0.21,0.214,0.396,0.582,0.552,1.109l3.09,9.418c0.105,0.318,0.158,0.713,0.158,1.189c0,0.263-0.184,0.554-0.553,0.869
	c-0.423,0.319-0.979,0.582-1.662,0.793l0.869,1.74c6.067-1.9,8.97-2.823,8.708-2.768l-0.24-1.981
	c-0.894,0.265-1.528,0.37-1.896,0.317c-0.424,0-0.741-0.105-0.949-0.317L47.121,20.5l-0.793-2.454l1.265-0.396
	c1.479-0.527,2.771-1.08,3.879-1.662c1.161-0.527,2.112-1.346,2.851-2.453c0.737-1.056,0.819-2.48,0.237-4.273
	c-0.634-1.85-1.583-2.983-2.851-3.404c-1.424-0.369-2.585-0.449-3.482-0.238L44.98,6.332l-8.547,2.851l0.394,1.977
	C37.513,10.949,38.124,10.843,38.65,10.843z M44.507,8.707c1.476-0.42,2.665-0.555,3.561-0.396c1.003,0.158,1.741,0.926,2.217,2.297
	c0.476,1.475,0.369,2.559-0.316,3.244c-0.687,0.686-1.69,1.24-3.007,1.662l-1.268,0.475l-2.217-6.887L44.507,8.707z M131.423,60.79
	c0-2.163-0.057-3.638-0.16-4.432c-0.158-1.372-0.479-2.323-0.951-2.849c-0.369-0.371-0.871-0.553-1.504-0.553l-5.381-0.081
	c-2.85,0-4.566,0.025-5.146,0.081c-1.16,0.051-2.082,0.262-2.77,0.633c-0.527,0.263-2.639,2.61-6.334,7.043
	c-5.223,6.07-8.996,10.318-11.32,12.744l-1.344,1.266c-1.477,1.425-2.533,2.297-3.166,2.613c-0.74,0.369-1.982,0.58-3.723,0.635
	c-2.479,0.051-4.404-0.738-5.777-2.375c-0.896-1.055-1.977-3.193-3.244-6.412l-2.613-6.176c-1.266-2.902-2.137-5.172-2.611-6.807
	c-0.793-2.427-1.188-4.645-1.188-6.649v-6.65c0.527-0.051,1.107-0.21,1.742-0.472l0.238-0.08c0.42-0.266,0.633-0.555,0.633-0.871
	c0.053-0.477-0.342-1.056-1.189-1.74l-3.322-2.773c-2.217-1.896-3.775-3.191-4.672-3.878c-1.584-1.108-2.771-1.688-3.563-1.741
	h-0.159c-0.699,0-1.583,0.566-2.65,1.704c-2.252-1.51-3.982-2.447-5.186-2.812c-0.947-0.211-2.32,0.236-4.115,1.346l-0.553,0.317
	c-1.372,0.844-2.058,1.792-2.058,2.848c0,1.161,0.263,2.798,0.79,4.909l0.317,1.344c0.316,1.373,0.554,2.217,0.71,2.534
	c0.266,0.582,0.607,0.872,1.031,0.872c0.42,0,0.713-0.187,0.871-0.556l1.503-2.69c0.044-0.115,0.096-0.234,0.159-0.357
	c0.696,1.259,1.383,2.749,2.058,4.473c1.106,2.691,1.53,4.564,1.269,5.621c-0.846,4.011-1.955,7.52-3.326,10.528l-0.873,2.296
	c-2.002,4.958-3.533,8.283-4.591,9.973c-1.792,2.848-3.772,4.275-5.937,4.275H43.16c-2.375-0.055-4.116-0.346-5.224-0.872
	c-0.789-0.37-1.871-1.214-3.246-2.534l-1.583-1.503c-2.533-2.374-5.936-6.095-10.208-11.161c-2.536-3.06-4.408-5.196-5.621-6.41
	c-1.479-1.479-2.561-2.244-3.244-2.297c-1.586-0.105-5.174-0.156-10.77-0.156c-0.999,0-1.792,0.237-2.372,0.709
	c-0.686,0.74-0.976,2.297-0.871,4.672v154.275l3.323-3.484c4.124-4.121,7.544-7.629,10.252-10.525
	c0.082,0.084,0.174,0.162,0.276,0.236c2.058,1.531,4.17,2.297,6.332,2.297h32.218l12.665,10.844l0.236,0.158l0.236-0.158
	c6.018-5.012,10.188-8.629,12.51-10.844h32.531c1.744,0,3.168-0.293,4.275-0.873c0.637-0.316,1.43-0.924,2.375-1.82
	c2.828,2.57,5.705,5.42,8.631,8.549l5.541,5.621V63.877C131.366,62.877,131.366,61.848,131.423,60.79z M56.538,38.787l0.08-0.237
	l5.304,3.086l0.711-1.269l-5.621-3.244c-0.263-0.158-0.552-0.238-0.867-0.238c-0.268,0.057-0.424,0.08-0.478,0.08
	c-0.15,0.076-0.309,0.221-0.476,0.434l-0.038,0.043c-0.556,0.527-1.2,1.529-1.938,3.006l-0.951,1.902l-0.71-3.168
	c-0.531-1.952-0.793-3.457-0.793-4.513c0-0.527,0.421-1.056,1.265-1.583l0.712-0.396c1.429-0.896,2.404-1.292,2.93-1.187
	c1.003,0.317,2.612,1.215,4.829,2.691l0.158,0.076c0.634,0.688,1.741,3.537,3.326,8.55l0.632,1.585l0.079,0.314L56.538,38.787z
	 M11.972,193.259v-1.346l1.11-0.355h0.158c0.896,0,1.979,0.262,3.243,0.791c1.056,0.422,1.793,0.633,2.218,0.633
	c0.634,0,1.478-0.211,2.533-0.633c1.159-0.529,2.162-0.791,3.007-0.791c0.95,0,2.058,0.262,3.326,0.791
	c1.055,0.422,1.765,0.633,2.137,0.633c0.473,0,1.187-0.211,2.138-0.633c0.43-0.154,0.825-0.283,1.197-0.393
	c0.216,0.107,0.409,0.236,0.637,0.336c0.257,0.115,0.519,0.229,0.798,0.334c0.222,0.084,0.429,0.148,0.634,0.217
	c-0.722,0.025-1.643,0.242-2.79,0.693c-0.951,0.477-1.82,0.711-2.613,0.711c-0.792,0-1.661-0.234-2.612-0.711
	c-1.425-0.475-2.375-0.713-2.851-0.713c-0.738,0-1.583,0.238-2.531,0.713c-1.319,0.477-2.323,0.711-3.009,0.711
	c-0.793,0-1.714-0.234-2.771-0.711c-1.159-0.475-2.03-0.713-2.61-0.713l-1.269,0.396L11.972,193.259z M17.209,165.546
	c-0.126-0.254-0.124-0.385-0.102-0.42c0,0,0.052-0.096,0.107-0.178c0.051-0.08,0.139-0.102,0.139-0.102
	c0.093,0.041,0.044,0.021,0.163,0.07c0,0,1.042,0.373,1.144,0.406l0.295-0.885c0.286,0.029,0.486,0.264,0.538,0.715v0.326
	l1.679,0.334c0.262,0.336,0.563,0.842,0.896,1.516c-0.803,0.063-1.478,0.133-2.027,0.207l-0.784,0.162
	c-0.399,0.162-0.836,0.18-1.337,0.055c-0.265-0.08-0.394-0.146-0.442-0.158c0.093-0.156,0.114-0.307,0.114-0.418v-0.264
	l-0.183-0.184c-0.304-0.305-0.312-0.449-0.285-0.486l0.274-0.318L17.209,165.546z M18.384,162.736V86.754h1.109v76.416
	c-0.348-0.305-0.658-0.445-0.97-0.445h-0.003C18.474,162.724,18.428,162.726,18.384,162.736z M28.92,163.277
	c0.628-0.17,1.237-0.344,1.831-0.516c2.164-0.621,4.148-1.25,5.882-1.869c0.948-0.316,2.843-0.924,5.715-1.828
	c0.813-0.295,1.541-0.596,2.159-0.896l0.003-0.002c0.112-0.055,0.224-0.109,0.328-0.168l1.593-1.031
	c0.137-0.113,0.262-0.229,0.378-0.346c0.699,0.266,1.486,0.385,2.366,0.34c0.374-0.045,0.728-0.143,1.053-0.287l0.104-0.07
	c0,0,0.508,0.391,1.14,0.76l0.476,0.234c0.424,0.316,0.896,0.396,1.427,0.24l0.076,0.553c0.686,4.91,2.351,7.311,4.988,7.205
	c0.424,0.475,1.029,0.898,1.82,1.264c0.896,0.477,1.716,0.715,2.454,0.715c0.792,0,1.371-0.188,1.741-0.553l1.979,0.156h0.236
	c0.34,0.158,0.732,0.238,1.189,0.238c0.738,0,1.582-0.238,2.533-0.715c0.514-0.254,0.941-0.549,1.326-0.857
	c0.135,0.236,0.275,0.484,0.461,0.762c0.207,0.273,0.664,1.004,1.695,2.939c1.322,2.379,2.797,4.764,4.385,7.092
	c1.701,2.5,3.09,4.27,4.129,5.252c2.475,2.314,4.91,3.953,7.236,4.871c0.795,0.328,1.648,0.598,2.551,0.82
	c-1.895-0.121-3.887-0.447-5.965-0.99c-3.203-0.775-6.293-1.953-9.188-3.506c-6.283-3.355-11.393-6.367-15.179-8.947l-0.008,0.012
	l0.008-0.014c-1.528-1.037-2.87-2.025-3.971-2.916c-0.004-0.002-0.004-0.002-0.006-0.002c-0.476-0.426-0.968-0.854-1.446-1.252
	c-0.137-0.131-0.276-0.258-0.423-0.381c-0.961-0.816-1.969-1.648-3.034-2.512l-1.143-0.869c-3.841-2.982-6.089-4.824-6.69-5.475
	l-0.424-0.455l-0.464,0.418c-1.037,0.93-2.598,2.199-4.65,3.783c-0.579,0.473-1.234,1.072-1.937,1.77
	c-0.41,0.395-0.84,0.82-1.287,1.289c-1.025,1.076-1.984,1.959-2.892,2.654c-1.411,1.264-2.496,2.117-3.224,2.541
	c-0.359,0.213-0.532,0.256-0.523,0.283l-1.214-0.645c-1.372-0.787-2.34-1.459-2.909-2.023c-0.628-0.545-1.301-1.471-1.986-2.736
	l-0.312-0.623c-0.374-0.777-0.716-1.377-1.05-1.824c1.531-0.459,3.578-1.035,6.12-1.729L28.92,163.277z M28.833,161.988V86.676
	h1.109v75C29.576,161.779,29.21,161.882,28.833,161.988z M74.161,151.238c0.42-0.184,0.85-0.387,1.283-0.607
	c1.49-0.764,3.047-1.775,4.625-3.002c1.375-1.061,2.803-2.309,4.242-3.713c3.551-3.551,6.344-7.902,8.303-12.941l-1.043-0.406
	c0.461-0.824,1.025-1.91,1.695-3.283c-0.264,2.795-0.686,4.906-1.266,6.33c-0.74,2.217-1.664,4.381-2.77,6.49
	c-1.057,2.006-2.295,3.932-3.721,5.779c-0.844,1.057-2.219,2.455-4.115,4.193c-0.424,0.424-1.691,1.293-3.803,2.615
	c-1.686,1-2.557,1.713-2.611,2.137c-0.369,2.955-0.869,4.934-1.502,5.936c-0.521,0.73-1.715,1.641-3.572,2.727
	c-0.002-0.004-0.002-0.008-0.004-0.014c-0.039,0.023-0.072,0.045-0.109,0.066l-0.133,0.08l-0.141,0.07v0.047
	c-0.178-0.086-0.396-0.189-0.523-0.254c-1.984-0.961-3.303-1.674-3.951-2.146c-1.06-0.664-2.353-1.73-3.84-3.17l-0.865,0.893
	c1.549,1.5,2.91,2.621,4.009,3.311c0.679,0.494,2.025,1.227,4.089,2.221c0.119,0.068,0.387,0.234,0.59,0.35
	c-0.334,0.406-0.799,0.689-1.414,0.838c-0.014,0.006-0.029,0.01-0.043,0.01c-0.1,0.021-0.213,0.037-0.322,0.053
	c-0.34,0.047-0.732,0.063-1.189,0.043c-0.098-0.004-0.197-0.01-0.295-0.018c-0.16-0.012-0.33-0.027-0.508-0.049
	c-0.271-0.039-0.949-0.455-0.949-0.455c-1.138-0.787-2.066-1.648-2.752-2.543c-0.301-0.434-0.648-1.004-1.03-1.699
	c-0.287-0.535-0.593-1.139-0.921-1.809l-1.121,0.541c0.336,0.691,0.651,1.311,0.949,1.861c0.404,0.74,0.777,1.354,1.123,1.84
	c0.716,0.941,1.643,1.822,2.766,2.633c-0.184,0.076-0.386,0.115-0.609,0.115c-0.632,0-1.345-0.236-2.138-0.711
	c-0.737-0.424-1.159-0.766-1.266-1.031l-0.317-0.611c-0.842-1.49-1.268-2.475-1.483-3.461l-1.213,0.266
	c0.208,0.965,0.691,2.117,1.429,3.418c-1.462-0.412-2.44-2.389-2.927-5.941c-0.266-1.162-0.662-1.744-1.186-1.744l-0.556,0.08
	l-0.238,0.082l-0.158-0.082l-1.266-0.789c0.738-0.738,1.106-1.639,1.106-2.693c0-0.686-0.212-1.346-0.634-1.979
	c-0.42-0.74-0.606-1.451-0.554-2.137c0.055-1.004,0.292-1.662,0.712-1.979c0.317-0.213,0.925-0.316,1.82-0.316h1.107
	c3.537,0,6.415,0.078,8.632,0.234c2.901,0.16,6.014-0.209,9.338-1.107c2.641-0.686,4.828-1.504,6.572-2.455
	c1.477-0.789,2.531-1.422,3.166-1.898c0.527-0.422,1.369-1.215,2.533-2.375l0.396-0.395c1.531-1.529,3.109-3.563,4.746-6.094
	l0.318-0.553c0.129-0.172,0.277-0.395,0.451-0.672c-1.873,4.518-4.443,8.443-7.668,11.664c-1.4,1.367-2.795,2.586-4.131,3.621
	c-1.518,1.176-3.01,2.146-4.434,2.877c-0.404,0.207-0.809,0.398-1.215,0.572c-0.928,0.424-1.727,0.637-2.373,0.637v1.246
	C72.114,151.98,73.085,151.73,74.161,151.238z M113.515,166.062c0,0,0.004,0.166-0.314,0.557l-0.145,0.176v0.227
	c0,0.082,0.014,0.213,0.039,0.385c-0.078,0.049-0.213,0.119-0.449,0.191c-0.455,0.123-0.896,0.102-1.424-0.088
	c-0.586-0.137-1.479-0.248-2.717-0.344c0.336-0.674,0.645-1.18,0.92-1.504l1.488-0.293l0.146-0.23
	c0.051-0.08,0.096-0.152,0.143-0.225l0.211-0.307c0.131-0.189,0.246-0.328,0.338-0.439l0.318,1.17l1.227-0.617l0.111,0.059
	l0.145,0.195c0,0,0.02,0.121-0.125,0.443l-0.166,0.342L113.515,166.062z M86.022,192.121c-0.475-0.086-1.027-0.189-1.672-0.316
	c-0.818-0.139-1.547-0.188-2.182-0.125h-0.004c-0.674,0.063-1.258,0.238-1.701,0.506l-0.52,0.279l-0.023,0.012
	c-0.717,0.43-1.352,0.896-1.904,1.402c-0.295,0.295-0.824,0.793-1.592,1.492c-0.303-0.559-0.596-1.098-0.887-1.623l-0.629-1.178
	l-0.006-0.012c-0.932-1.693-1.764-3.162-2.502-4.41c-0.615-1.029-1.16-1.908-1.641-2.641c-1.416-2.123-3.053-4.25-4.877-6.326
	c1.455,1.281,2.762,2.5,3.91,3.654c2.498,2.391,5.115,5.324,7.777,8.717l0.996-0.781c-2.699-3.441-5.355-6.42-7.885-8.844
	c-0.713-0.711-1.484-1.451-2.316-2.217c2.422,1.416,5.113,2.92,8.059,4.492c2.986,1.6,6.178,2.816,9.48,3.615
	c3.91,1.018,7.568,1.311,10.854,0.883c1.832-0.256,3.133-0.521,4.061-0.766c-0.037,0.057-0.076,0.117-0.117,0.174l-0.006,0.006
	c-0.322,0.482-0.648,0.869-0.957,1.143c-1.102,0.951-2.449,1.738-3.998,2.34c-0.623,0.223-1.176,0.4-1.664,0.531
	c-0.381,0.072-0.719,0.121-0.992,0.141l-3.988,0.119h-0.002l-1.209,0.039C87.825,192.427,87.522,192.402,86.022,192.121z
	 M87.325,193.636c-1.055,0.453-1.98,0.691-2.766,0.691c-0.529,0-1.451-0.238-2.768-0.711c-0.25-0.123-0.486-0.227-0.721-0.32
	l0.016-0.008c0.309-0.188,0.711-0.305,1.197-0.35c0.52-0.049,1.145-0.008,1.838,0.109c0.635,0.125,1.189,0.229,1.668,0.318
	C86.542,193.511,87.019,193.589,87.325,193.636z M50.214,192.044c-0.609-0.369-1.356-0.549-2.267-0.549
	c-0.481,0-1.005,0.049-1.58,0.152c-2.916,0.557-3.492,0.619-3.582,0.621l-5.198-0.154c-0.675-0.051-1.578-0.277-2.668-0.674
	c-0.243-0.096-0.481-0.193-0.725-0.307c-1.251-0.549-2.356-1.234-3.279-2.029c-0.282-0.248-0.568-0.584-0.861-1.014
	c-0.078-0.104-0.155-0.211-0.232-0.33c0.941,0.26,2.244,0.525,4.075,0.783c3.285,0.434,6.935,0.131,10.837-0.885
	c3.308-0.799,6.499-2.016,9.495-3.619c3.487-1.889,6.625-3.666,9.339-5.289c-0.94,0.93-1.746,1.752-2.414,2.463
	c-1.121,1.125-3.056,3.408-5.745,6.783l0.99,0.787c2.659-3.338,4.562-5.582,5.668-6.688c0.15-0.164,0.309-0.332,0.476-0.502
	c-0.963,1.236-1.851,2.494-2.653,3.754c-0.495,0.744-1.069,1.676-1.719,2.799c-0.55,0.912-1.144,1.947-1.788,3.102l-0.836,1.508l0,0
	c-0.418,0.77-0.859,1.586-1.323,2.455c-0.729-0.67-1.26-1.162-1.606-1.508C51.889,193.035,51.066,192.468,50.214,192.044z
	 M51.195,194.187c-0.719-0.063-1.465-0.256-2.258-0.65c-0.965-0.35-1.7-0.566-2.214-0.66c1.253-0.207,2.208-0.123,2.884,0.275
	C50.172,193.437,50.694,193.794,51.195,194.187z M44.248,193.326c-0.196,0.066-0.389,0.129-0.612,0.211
	c-1.427,0.477-2.402,0.711-2.93,0.711c-0.897,0-1.925-0.264-3.086-0.789c-0.102-0.047-0.18-0.063-0.279-0.102
	c0.058,0.006,0.118,0.016,0.176,0.02l5.248,0.16C42.86,193.537,43.064,193.531,44.248,193.326z M18.331,178.955
	c-0.159-0.365-0.296-0.73-0.403-1.1c-0.193-0.775-0.254-1.576-0.177-2.395c0.091-1.123,0.286-2.041,0.584-2.73l0,0
	c0.414-0.959,0.995-1.443,1.818-1.514h0.21c0.729,0,1.334,0.248,1.848,0.764l0.207,0.203l0.29-0.021
	c0.34-0.016,0.596,0.059,0.813,0.602c0.068,0.139,0.139,0.266,0.21,0.379c-0.331,0.348-0.601,0.891-0.812,1.621
	c-0.281,1.014-0.396,1.99-0.339,2.887c0.112,2.939,1.074,5.42,2.859,7.367c0.16,0.178,0.324,0.346,0.494,0.506
	c-1.459-0.541-2.948-1.438-4.452-2.684c-1.38-1.158-2.395-2.365-3.007-3.598l-0.02-0.018l0.01-0.004
	C18.415,179.132,18.371,179.042,18.331,178.955z M18.384,170.587v-1.49c0.41,0.025,0.787-0.029,1.109-0.145v1.094
	C19.133,170.142,18.75,170.306,18.384,170.587z M20.759,169.966v-1.24c0.549-0.063,1.194-0.119,1.938-0.176
	c0.708,1.248,1.389,2.146,2.047,2.719c0.577,0.576,1.499,1.234,2.824,2.01v1.326c-2.154-1.889-2.261-1.889-2.564-1.891
	c0,0-0.136-0.082-0.33-0.461c-0.325-0.85-0.949-1.324-1.769-1.359C22.288,170.353,21.571,170.041,20.759,169.966z M23.848,177.587
	c-0.05-0.771,0.049-1.607,0.29-2.48c0.237-0.83,0.479-1.092,0.584-1.148c0.052,0.014,0.102,0.02,0.146,0.029
	c0.218,0.16,0.839,0.66,2.588,2.207c0.112,0.1,0.224,0.197,0.336,0.293c0.046,0.043,0.096,0.078,0.142,0.121l0.899,0.746v-0.092
	c0.489,0.322,0.993,0.582,1.503,0.791l0.873,0.354v-0.066c0.928,0.246,1.898,0.326,2.889,0.234c0.935-0.061,1.951-0.379,3.033-0.947
	c0.6-0.324,1.697-1.006,3.354-2.074c2.064-1.271,4.797-3.174,8.117-5.65c1.162-0.848,2.211-1.582,3.122-2.189l0.458,0.35
	c0.899,0.729,1.767,1.445,2.598,2.148c-1.047,1.834-2.2,3.701-3.434,5.551c-1.662,2.436-2.987,4.133-3.946,5.043
	c-2.358,2.203-4.663,3.758-6.852,4.623c-2.236,0.916-4.952,1.379-8.071,1.379c-1.597,0-3.031-0.383-4.261-1.133h-0.003
	c-0.003,0-0.005-0.002-0.008-0.008c-0.656-0.387-1.274-0.893-1.832-1.506C24.796,182.441,23.947,180.234,23.848,177.587z
	 M28.833,175.703v-1.732l0.331,0.172c0.24,0.139,0.506,0.148,0.778,0.088v2.229C29.566,176.242,29.194,175.992,28.833,175.703z
	 M50.028,167.335c-0.673,0.465-1.402,0.98-2.182,1.553c-3.296,2.457-5.995,4.336-8.038,5.594c-1.617,1.043-2.722,1.727-3.273,2.031
	c-0.919,0.48-1.766,0.748-2.534,0.801c-0.97,0.09-1.906-0.01-2.792-0.293v-3.395c0.778-0.502,1.795-1.318,3.074-2.465
	c0.924-0.703,1.935-1.633,3.004-2.756c0.363-0.379,0.715-0.734,1.063-1.07H50.028z M39.68,166.066
	c0.246-0.221,0.481-0.422,0.7-0.604c1.792-1.379,3.225-2.533,4.264-3.438c0.83,0.76,2.463,2.096,4.946,4.041H39.68z M62.573,177.431
	c0.09,0.094,0.178,0.186,0.266,0.281c-2.682,1.602-5.779,3.352-9.211,5.213c-2.894,1.551-5.989,2.73-9.202,3.51
	c-2.071,0.537-4.062,0.865-5.95,0.984c0.899-0.217,1.749-0.488,2.542-0.813c2.334-0.926,4.772-2.564,7.251-4.881
	c1.041-0.984,2.388-2.703,4.127-5.254c1.205-1.807,2.334-3.625,3.358-5.414c0.429,0.363,0.85,0.725,1.276,1.105l0,0
	C59.107,173.998,60.974,175.773,62.573,177.431z M65.208,180.332c1.672,1.932,3.186,3.906,4.496,5.877
	c0.418,0.633,0.893,1.4,1.412,2.262H59.452c0.555-0.945,1.061-1.768,1.5-2.43C62.185,184.105,63.614,182.183,65.208,180.332z
	 M57.487,191.867c0.054-0.094,0.101-0.178,0.152-0.271c0.776,0.084,1.72,0.352,2.856,0.832c0.948,0.369,1.662,0.555,2.137,0.555
	c0.58,0,1.293-0.186,2.137-0.555c1.267-0.578,2.404-0.869,3.406-0.869c0.791,0,1.77,0.262,2.932,0.791
	c1.053,0.422,1.898,0.633,2.529,0.633c0.018,0,0.037-0.004,0.053-0.004c0.037,0.066,0.068,0.121,0.105,0.188l0.545,1.021
	c-0.246,0.039-0.48,0.061-0.703,0.061c-0.789,0-1.795-0.234-3.006-0.711c-1.055-0.424-1.871-0.633-2.455-0.633
	c-0.896,0-1.877,0.238-2.93,0.713c-1.057,0.42-1.926,0.631-2.613,0.631c-0.686,0-1.555-0.211-2.612-0.631
	c-1.055-0.475-2.006-0.713-2.851-0.713c-0.076,0-0.19,0.031-0.278,0.041L57.487,191.867z M98.177,186.968
	c-3.125,0-5.84-0.465-8.08-1.383c-2.186-0.861-4.486-2.418-6.844-4.621c-0.967-0.916-2.295-2.613-3.949-5.041
	c-1.564-2.297-3.02-4.65-4.316-6.986c-0.865-1.623-1.453-2.635-1.77-3.059c-0.117-0.178-0.213-0.348-0.314-0.52
	c0.42-0.068,1.115,0.061,1.115,0.061c0.811,0.082,1.113,0.336,1.223,0.375c0.707,0.256,1.742,0.818,3.08,1.68
	c1.039,0.668,2.289,1.541,3.723,2.584c3.535,2.639,6.27,4.543,8.113,5.65c1.191,0.758,2.082,1.313,2.684,1.68
	c0,0,0.289,0.242,1.229,0.713c1.932,1.004,5.449,0.432,5.449,0.432l0.877-0.361c0.977-0.402,1.918-1.016,2.791-1.814
	c1.783-1.574,2.396-2.063,2.604-2.217c0.033-0.002,0.072-0.01,0.109-0.016c0.078,0.064,0.297,0.316,0.531,1.146
	c0.246,0.832,0.371,1.68,0.371,2.5c-0.049,2.623-0.896,4.822-2.523,6.551c-0.543,0.592-1.137,1.088-1.867,1.557l-0.01-0.01
	C101.179,186.595,99.759,186.968,98.177,186.968z M71.974,164.089l-0.396-0.078l-0.236,0.398c-0.135,0.268-0.463,0.555-0.99,0.867
	c0.146-0.242,0.266-0.508,0.357-0.789c1.953-1.111,3.244-2.141,3.877-3.09c0.688-1.105,1.244-3.191,1.664-6.252
	c0.156-0.213,0.816-0.662,1.979-1.346c0.15,0.656,0.467,1.264,0.949,1.822l-1.188,0.789l-0.158,0.078l-0.789-0.156
	c-0.686,0-1.084,0.582-1.189,1.738c-0.314,2.221-0.764,3.803-1.344,4.752C73.874,163.775,73.028,164.195,71.974,164.089z
	 M92.456,167.335c0.301,0.289,0.604,0.596,0.918,0.924c1.113,1.111,2.084,2.027,2.883,2.725c1.289,1.102,2.295,1.883,3.025,2.359
	v3.869c-0.242,0.076-0.475,0.137-0.672,0.176h-2.59c-0.58-0.119-1.223-0.359-1.893-0.711c-0.459-0.256-1.566-0.941-3.303-2.047
	c-1.824-1.094-4.521-2.973-8.029-5.592c-0.867-0.633-1.668-1.201-2.4-1.703H92.456z M80.829,166.066
	c2.602-2.021,4.311-3.408,5.166-4.191c1.014,0.906,2.445,2.059,4.256,3.414c0.287,0.238,0.582,0.496,0.889,0.777H80.829z
	 M107.649,174.917c-0.096-0.336-0.316-1.113-0.779-1.615c0.064-0.121,0.129-0.252,0.191-0.396c0.254-0.553,0.57-0.602,0.881-0.584
	l0.291,0.02l0.207-0.203c0.514-0.518,1.088-0.766,1.766-0.766c0.936,0,1.586,0.439,2.043,1.385c0.334,0.709,0.551,1.672,0.652,2.867
	c0.068,0.768,0.021,1.529-0.146,2.252c-0.434,1.807-1.639,3.525-3.586,5.121c-1.508,1.252-3.008,2.152-4.459,2.691
	c0.17-0.16,0.334-0.33,0.496-0.504c1.846-1.957,2.811-4.443,2.863-7.402C108.069,176.83,107.929,175.865,107.649,174.917z
	 M112.187,170.714c-1.238-0.896-3.154-0.805-4.441,0.338c-0.811,0.039-1.453,0.5-1.842,1.342c-0.16,0.379-0.271,0.479-0.264,0.479
	l-0.021,0.01l-0.002-0.008c-0.117,0-0.205,0-0.447,0.162l-1.461,1.182c-0.369,0.318-0.818,0.711-1.369,1.199
	c-0.5,0.457-1.02,0.842-1.553,1.148v-2.475c0.246,0.047,0.49,0.027,0.695-0.1c2.066-1.092,3.512-2.029,4.387-2.854
	c0.652-0.555,1.314-1.459,2.016-2.748c1.434,0.098,2.455,0.217,2.98,0.334c0.439,0.158,0.895,0.234,1.322,0.215V170.714z
	 M102.12,188.25c0.215-0.352,0.375-0.602,0.479-0.758c2.416-0.277,4.898-1.459,7.377-3.518c1.996-1.631,3.297-3.42,3.877-5.318
	h5.221v9.814h-17.098C102.024,188.396,102.071,188.326,102.12,188.25z M112.187,162.578c-0.049-0.012-0.102-0.012-0.148-0.012
	c-0.572,0.008-1.129,0.49-1.891,1.648l-0.307-0.096c-1.697-0.531-4.314-1.277-7.777-2.221c-0.518-0.143-1.02-0.281-1.512-0.422
	v-74.8l11.635,0.002V162.578z M101.728,163.119c2.732,0.746,4.936,1.367,6.57,1.855l-0.613,1.027
	c-0.137,0.248-0.277,0.52-0.424,0.82c-0.1,0.213-0.205,0.42-0.307,0.621l-0.002,0.002c-0.689,1.32-1.328,2.236-1.93,2.752
	c-0.783,0.738-2.135,1.615-4.055,2.635c-0.07-0.02-0.225-0.072-0.502-0.227c-0.057-0.035-0.111-0.072-0.223-0.15
	c-0.725-0.441-1.791-1.26-3.156-2.432c-0.777-0.674-1.725-1.566-2.809-2.65c-0.381-0.398-0.756-0.775-1.117-1.117
	c-0.738-0.74-1.445-1.395-2.123-1.959c-2.084-1.564-3.637-2.824-4.619-3.752l-0.463-0.441l-0.434,0.469
	c-0.609,0.656-2.924,2.535-6.893,5.6c-1.238-0.779-2.234-1.309-2.961-1.568c-0.207-0.078-0.51-0.141-0.912-0.193
	c1.15-1.139,1.941-3.186,2.361-6.176l0.162-0.555l0.551,0.08c0.369,0,0.66-0.107,0.871-0.318l0.475-0.238
	c0.736-0.473,1.115-0.805,1.115-0.805c0.348,0.176,0.77,0.303,1.129,0.328c0.885,0.078,1.682-0.012,2.41-0.271
	c0.117,0.121,0.246,0.234,0.385,0.354l1.93,1.205c0.629,0.303,1.355,0.604,2.146,0.887c1.389,0.535,3.322,1.154,5.715,1.828
	c1.699,0.607,3.629,1.225,5.732,1.832l0.813,0.234v-0.004C100.937,162.9,101.331,163.009,101.728,163.119z M86.351,156.693
	c-0.563-0.297-1.02-0.6-1.373-0.896c0.725-0.596,1.42-1.512,2.107-2.785c0.646-1.107,1.615-1.76,2.982-1.996
	c0.604-0.119,1.318-0.191,2.127-0.215c-0.025,0.406-0.135,0.877-0.336,1.436l-0.441,1.955c-0.883,0.066-1.535,0.533-1.9,1.354
	c-0.029-0.016-0.059-0.033-0.094-0.057c-0.484-0.322-0.863-0.563-1.135-0.727l-0.547-0.332l-0.324,0.555
	C86.854,155.949,86.528,156.443,86.351,156.693z M89.835,149.773c-1.717,0.295-3.01,1.17-3.85,2.617
	c-0.641,1.182-1.277,2.02-1.879,2.482c-0.141,0.1-0.281,0.195-0.379,0.26c-0.6,0.295-1.348,0.406-2.209,0.33
	c-0.197-0.014-0.396-0.072-0.59-0.168l-0.484-0.307c-0.26-0.262-0.459-0.52-0.621-0.779c1.324-0.328,2.525-1.152,3.57-2.471
	c2.02-2.539,2.43-2.99,2.527-3.078c0.631-0.537,1.707-0.859,3.182-0.957c0.883-0.018,1.727,0.361,2.596,1.229
	c0.242,0.256,0.41,0.453,0.525,0.6C91.319,149.554,90.513,149.638,89.835,149.773z M79.644,152.943
	c1.264-0.801,2.15-1.439,2.621-1.914c0.1-0.086,0.18-0.162,0.277-0.248c-0.051,0.061-0.088,0.107-0.141,0.172
	C81.567,152.003,80.642,152.662,79.644,152.943z M53.845,145.328c-0.839,0-1.505,0.102-2.014,0.297
	c-0.003-0.025-0.008-0.051-0.008-0.07c-0.059,0.014-0.109,0.031-0.156,0.047c-0.273,0.127-0.52,0.297-0.727,0.512
	c-1.211-0.973-2.455-2.076-3.696-3.289c-3.445-3.441-6.077-7.43-7.84-11.863c0.098,0.166-0.408-0.73-0.34-0.604l-1.073,0.402
	c1.822,4.855,4.638,9.211,8.38,12.953c1.316,1.285,2.634,2.451,3.913,3.471c-0.026,0.078-0.047,0.162-0.07,0.244
	c0.023,0,0.044,0.008,0.07,0.012c-0.137,0.441-0.216,0.951-0.238,1.533c-0.032,0.629,0.058,1.248,0.276,1.859
	c-0.53-0.373-0.912-0.678-1.146-0.91c-1.637-1.529-3.008-2.955-4.115-4.275c-1.269-1.635-2.506-3.535-3.723-5.699
	c-1.107-2.109-2.03-4.273-2.769-6.492c-0.53-1.688-0.927-3.77-1.188-6.252l2.533,4.672l0.396,0.553
	c1.635,2.586,3.191,4.617,4.668,6.096l0.396,0.395c1.269,1.215,2.109,2.004,2.533,2.377c0.686,0.473,1.741,1.107,3.166,1.898
	c1.587,0.84,3.5,1.578,5.738,2.217L53.845,145.328z M51.233,152.968v0.119c0,0.027-0.011,0.057-0.014,0.084
	c-1.129-0.24-2.153-0.932-3.05-2.061c-0.521-0.66-0.919-1.164-1.249-1.58c0.435,0.432,0.892,0.875,1.386,1.34
	C48.931,151.457,49.908,152.154,51.233,152.968z M47.177,151.9c1.049,1.32,2.277,2.145,3.646,2.469
	c-0.162,0.26-0.358,0.518-0.618,0.777l-0.479,0.412c0,0-0.46,0.117-0.658,0.143c-0.722,0.025-1.378-0.076-1.948-0.318l-0.208-0.098
	c-0.167-0.078-0.319-0.166-0.419-0.232c-0.574-0.475-1.216-1.326-1.907-2.506c-0.779-1.438-2.047-2.318-3.837-2.625
	c-0.945-0.063-1.671-0.115-2.17-0.162l0.01-0.074h-0.193c0.125-0.148,0.298-0.338,0.541-0.58c0.88-0.879,1.749-1.299,2.6-1.242
	c1.489,0.096,2.561,0.418,3.15,0.918C44.772,148.873,45.276,149.488,47.177,151.9z M40.599,151.177
	c1.342,0.234,2.282,0.877,2.886,1.99c0.748,1.285,1.439,2.197,2.148,2.813c-0.348,0.291-0.79,0.58-1.328,0.867
	c-0.188-0.262-0.536-0.764-1.17-1.73l-0.333-0.51l-0.52,0.313c-0.271,0.16-0.648,0.404-1.151,0.74
	c-0.011,0.006-0.021,0.016-0.03,0.021c-0.396-0.807-1.043-1.264-1.883-1.332l-0.514-1.979c-0.153-0.594-0.224-1.029-0.243-1.35
	C38.967,151.066,39.683,151.121,40.599,151.177z M27.568,162.339c-2.968,0.811-5.242,1.465-6.759,1.938l-0.05,0.018V87.705h6.809
	V162.339z M17.526,180.16c0.7,1.262,1.755,2.488,3.146,3.652c2.463,2.045,4.926,3.227,7.372,3.518
	c0.084,0.121,0.231,0.342,0.483,0.754c0.084,0.145,0.172,0.256,0.26,0.387H11.972v-9.814h4.882c0.079,0.229,0.166,0.459,0.266,0.686
	L17.526,180.16z M70.392,207.308c-0.369,0.318-0.686,0.346-0.951,0.08c-0.314-0.213-1.105-0.344-2.375-0.396
	c-0.527,0-1.371,0.215-2.533,0.635c-1.055,0.527-2.031,0.791-2.931,0.791c-0.524,0-0.737-0.211-0.632-0.633
	c0-0.422,0.212-0.635,0.632-0.635c0.687,0,1.507-0.236,2.455-0.711c1.161-0.529,2.188-0.764,3.088-0.713
	c1.689,0.053,2.746,0.291,3.168,0.713C70.63,206.753,70.655,207.044,70.392,207.308z M75.298,202.957
	c-0.262,0-0.686-0.105-1.266-0.318c-0.686-0.211-1.158-0.316-1.424-0.316c-0.371,0-1.215,0.236-2.533,0.713
	c-1.531,0.475-2.506,0.713-2.93,0.713c-0.9,0-1.928-0.266-3.088-0.791c-1.055-0.422-1.872-0.635-2.455-0.635
	c-0.686,0-1.634,0.236-2.848,0.713c-0.948,0.475-1.819,0.713-2.61,0.713c-0.478,0-0.716-0.211-0.716-0.633
	c0-0.424,0.238-0.633,0.716-0.633c0.422,0,1.107-0.211,2.056-0.633c1.268-0.527,2.402-0.793,3.402-0.793
	c0.635,0,1.61,0.238,2.931,0.713c1.054,0.473,1.927,0.713,2.613,0.713c0.475,0,1.295-0.24,2.453-0.713
	c1.424-0.475,2.432-0.713,3.01-0.713c0.314,0,0.922,0.133,1.82,0.396l0.793,0.238c0.42-0.109,0.631,0.078,0.631,0.551
	C75.958,202.615,75.772,202.851,75.298,202.957z M116.14,198.208c-0.205,0-0.629-0.107-1.264-0.318
	c-0.791-0.264-1.344-0.396-1.662-0.396h-0.156c-0.316,0-1.189,0.238-2.615,0.715c-1.424,0.473-2.4,0.709-2.928,0.709
	c-0.844,0-1.844-0.26-3.008-0.789c-1.055-0.422-1.873-0.635-2.453-0.635c-0.633,0-1.607,0.238-2.93,0.715
	c-0.844,0.473-1.715,0.709-2.611,0.709c-0.688,0-1.557-0.236-2.609-0.709c-1.322-0.477-2.273-0.715-2.852-0.715
	c-0.896,0.053-1.742,0.291-2.531,0.715c-1.322,0.473-2.324,0.709-3.01,0.709c-0.844,0-1.744-0.236-2.691-0.709
	c-1.32-0.477-2.217-0.715-2.691-0.715c-0.369,0-1.217,0.238-2.535,0.715c-1.529,0.473-2.504,0.709-2.928,0.709
	c-0.896,0-1.926-0.26-3.088-0.789c-1.055-0.422-1.871-0.635-2.451-0.635c-0.686,0-1.637,0.238-2.852,0.715
	c-0.951,0.473-1.821,0.709-2.614,0.709c-0.738,0-1.635-0.236-2.69-0.709c-1.319-0.477-2.24-0.715-2.771-0.715
	c-0.793,0.053-1.634,0.266-2.533,0.635c-1.161,0.529-2.162,0.789-3.007,0.789c-0.527,0-1.45-0.236-2.769-0.709
	c-1.058-0.477-1.953-0.715-2.694-0.715c-0.474,0-1.345,0.213-2.613,0.635c-1.266,0.529-2.217,0.789-2.848,0.789
	c-0.898,0-1.928-0.26-3.086-0.789c-1.058-0.422-1.875-0.635-2.455-0.635c-0.686,0-1.637,0.238-2.85,0.715
	c-1.159,0.473-2.059,0.709-2.692,0.709c-0.421,0-1.293-0.236-2.609-0.709c-1.323-0.477-2.272-0.715-2.852-0.715
	c-0.686,0-1.505,0.213-2.454,0.635c-1.268,0.529-2.295,0.789-3.088,0.789c-0.474,0-1.373-0.236-2.689-0.713
	c-1.058-0.473-1.951-0.711-2.692-0.711l-0.714,0.078c-0.076,0.047-0.142,0.07-0.196,0.08c-0.243-0.324-0.453-0.684-0.634-1.066
	c0.068-0.074,0.161-0.141,0.278-0.201l1.188-0.234c1.003,0.053,2.084,0.34,3.243,0.869c0.951,0.369,1.689,0.553,2.217,0.553
	c0.634,0,1.479-0.207,2.536-0.633c1.053-0.475,2.056-0.709,3.006-0.709c0.949,0,2.059,0.262,3.324,0.789
	c0.95,0.371,1.661,0.553,2.137,0.553c0.582,0,1.293-0.182,2.137-0.553c1.163-0.527,2.297-0.789,3.405-0.789
	c0.896,0,1.873,0.234,2.928,0.709c1.161,0.426,2.034,0.633,2.613,0.633c0.369,0,1.186-0.207,2.455-0.633
	c1.161-0.475,2.16-0.709,3.006-0.709c0.899,0,1.98,0.262,3.247,0.789c0.95,0.424,1.688,0.633,2.216,0.633
	c0.53,0,1.164-0.188,1.854-0.469c0,0,0.432-0.156,0.602-0.244c1.423-0.525,2.45-0.764,3.085-0.709c0.896,0,1.979,0.262,3.244,0.789
	c1.058,0.424,1.796,0.633,2.217,0.633c0.423,0,1.108-0.209,2.057-0.633c1.27-0.527,2.402-0.789,3.408-0.789
	c0.688,0,1.688,0.234,3.004,0.709c0.955,0.477,1.797,0.713,2.535,0.713c0.313,0,0.785-0.1,1.393-0.281l0.07-0.02
	c0.299-0.092,0.623-0.197,0.99-0.332c1.268-0.527,2.271-0.789,3.01-0.789c0.951,0,2.006,0.262,3.164,0.789
	c1.059,0.424,1.795,0.633,2.219,0.633c0.635,0,1.479-0.209,2.531-0.633c1.162-0.527,2.166-0.789,3.01-0.789
	c0.633,0,1.74,0.262,3.322,0.789c1.059,0.424,1.771,0.633,2.139,0.633c0.32,0,1.029-0.184,2.137-0.553
	c1.266-0.58,2.4-0.869,3.404-0.869c0.633,0,1.607,0.234,2.928,0.709c0.951,0.477,1.795,0.713,2.533,0.713
	c0.424,0,1.266-0.209,2.533-0.633c1.266-0.527,2.273-0.789,3.01-0.789h0.156c0.477,0,1.189,0.154,2.141,0.471l0.709,0.238
	c0.398,0.16,0.633,0.211,0.633,0.633C116.667,198.083,116.62,198.208,116.14,198.208z M119.073,194.023
	c-0.424,0.184-0.848,0.305-1.189,0.305h-0.313c-0.48,0-1.373-0.238-2.695-0.711c-1.053-0.475-1.951-0.713-2.689-0.713h-0.08
	c-0.578,0-1.451,0.209-2.611,0.631c-1.27,0.529-2.244,0.793-2.932,0.793c-0.578,0-1.607-0.264-3.084-0.793
	c-1.055-0.422-1.877-0.631-2.455-0.631c-0.949,0-1.9,0.238-2.848,0.713c-1.162,0.473-2.031,0.711-2.613,0.711
	c-0.475,0-1.373-0.238-2.691-0.711c-0.061-0.027-0.109-0.041-0.17-0.066l0.451-0.016c0.348-0.023,0.74-0.08,1.186-0.17l0.035-0.006
	c0.375-0.098,0.801-0.232,1.256-0.387c0.52-0.012,1.178-0.189,1.992-0.545c1.369-0.578,2.506-0.869,3.402-0.869
	c0.844,0,1.848,0.262,3.01,0.791c1.055,0.422,1.898,0.633,2.529,0.633c0.477,0,1.293-0.211,2.455-0.633
	c1.375-0.529,2.398-0.791,3.088-0.791h0.08c0.951,0.053,2.002,0.342,3.168,0.869c0.947,0.369,1.689,0.555,2.217,0.555
	c0.523,0,0.893-0.053,1.105-0.158c0.148-0.029,0.279-0.029,0.396,0C119.067,193.316,119.095,193.697,119.073,194.023z
	 M119.786,85.568c-0.477,1.371-0.713,2.639-0.713,3.799v88.021h-4.943c0.08-0.613,0.09-1.242,0.031-1.873
	c-0.105-1.275-0.342-2.344-0.709-3.174v-3.693c0.463-0.207,0.766-0.488,0.904-0.844l0.068-0.172l-0.035-0.184
	c-0.02-0.094-0.033-0.174-0.047-0.242c0.494-0.699,0.494-1.221,0.361-1.58c0.146-0.441,0.154-0.818,0.021-1.131
	c0.002-0.426-0.123-0.752-0.369-0.971c-0.158-0.137-0.416-0.279-0.904-0.215v-77.9l-14.17-0.002v75.699
	c-1.768-0.523-3.4-1.053-4.891-1.584c-2.396-0.678-4.295-1.283-5.658-1.805c-0.434-0.156-0.842-0.318-1.221-0.477
	c0.172-0.254,0.387-0.59,0.666-1.057c0.164,0.109,0.35,0.229,0.559,0.369c0.268,0.168,0.98,0.609,1.557,0.229l0.203-0.137
	l0.061-0.238c0.188-0.746,0.557-1.029,1.301-0.947l0.559,0.055l0.654-2.922c0.275-0.748,0.408-1.438,0.389-2.051
	c0.133-0.117,0.199-0.25,0.229-0.328c0.199-0.529-0.102-1.133-1.082-2.166c-1.131-1.133-2.355-1.66-3.576-1.607
	c-1.146,0.072-2.064,0.281-2.783,0.584c0.096-0.117,0.205-0.236,0.291-0.348c1.477-1.85,2.771-3.854,3.879-6.02
	c1.213-2.32,2.164-4.51,2.85-6.566c0.373-1.107,0.713-2.666,1.029-4.672c0.316-2.324,0.396-3.982,0.236-4.986l-0.316-1.98
	l-2.371,4.75c-1.059,2.113-1.797,3.484-2.221,4.115l-0.393,0.557c-1.531,2.426-3.035,4.379-4.514,5.857l-0.395,0.395
	c-1.162,1.215-1.98,1.979-2.453,2.297c-0.582,0.422-1.584,1.027-3.008,1.818c-1.639,0.846-3.721,1.609-6.254,2.297
	c-1.465,0.385-2.877,0.662-4.234,0.83l-1.387,0.041c-2.746,0.158-5.726-0.186-8.943-1.029c-2.536-0.635-4.646-1.398-6.336-2.297
	c-1.424-0.789-2.399-1.398-2.927-1.82c-0.476-0.369-1.296-1.133-2.454-2.291l-0.396-0.398c-1.372-1.373-2.903-3.324-4.592-5.859
	l-4.984-9.496l-0.317,2.059c-0.158,1.002-0.055,2.664,0.317,4.986c0.313,2.004,0.657,3.561,1.027,4.668
	c0.792,2.375,1.74,4.564,2.85,6.57c1.214,2.322,2.507,4.326,3.879,6.016c0.229,0.279,0.489,0.574,0.762,0.881
	c-0.813-0.445-1.885-0.713-3.266-0.801c-1.254-0.074-2.435,0.48-3.566,1.609c-1.022,1.025-1.344,1.633-1.153,2.162
	c0.033,0.09,0.109,0.246,0.298,0.375c-0.005,0.525,0.093,1.168,0.299,1.949l0.77,2.982l0.542-0.059
	c0.511-0.053,1.019,0.029,1.307,0.977l0.064,0.221l0.189,0.123c0.396,0.27,0.907,0.186,1.495-0.234
	c0.21-0.141,0.398-0.268,0.565-0.375c0.312,0.469,0.546,0.816,0.724,1.07c-0.374,0.156-0.775,0.313-1.199,0.469
	c-2.856,0.896-4.756,1.506-5.72,1.826c-1.504,0.535-3.186,1.078-5.013,1.615v-75.9h-3.641v1.031h-6.809v-0.951h-3.64v77.951
	c-0.405-0.029-0.668,0.109-0.823,0.244c-0.254,0.223-0.38,0.555-0.374,0.994c-0.104,0.264-0.146,0.633,0.014,1.104
	c-0.153,0.352-0.199,0.881,0.294,1.521c-0.038,0.191-0.026,0.41,0.036,0.662c0.106,0.426,0.474,0.68,0.854,0.844v3.547
	c-0.323,0.797-0.533,1.805-0.632,2.994c-0.063,0.689-0.044,1.369,0.057,2.039h-4.572V89.445c0-1.952-0.079-3.191-0.238-3.719
	c-0.42-1.584-1.579-3.192-3.481-4.83h114.383C121.37,82.269,120.419,83.827,119.786,85.568z M93.505,21.689l-1.189-0.316
	c-0.578,0.896-1.133,1.531-1.66,1.898c-0.686,0.474-1.316,0.711-1.9,0.711l-1.74-0.237l-1.424-0.396
	c-0.424-0.104-0.898-0.287-1.426-0.553c-0.318-0.318-0.5-0.528-0.557-0.635l-0.076-0.87l1.424-5.146l2.455-0.079
	c0.367,0.106,0.789,0.342,1.266,0.714c0.473,0.421,0.82,0.658,1.029,0.711c0.684,0.213,1.396,0.213,2.139,0
	c0.42-0.104,0.92-0.314,1.502-0.632c0.158-0.16,0.184-0.237,0.08-0.237c-0.424-0.107-0.924-0.214-1.506-0.318
	c-0.475-0.105-1.027-0.525-1.662-1.268c-0.896-0.842-2.004-1.053-3.322-0.631l-1.584,0.555l1.504-5.465l3.246,0.951
	c0.896,0.264,1.527,0.502,1.898,0.712c0.422,0.159,0.764,0.503,1.029,1.03c0.213,0.475,0.344,1.081,0.396,1.82l1.186,0.316
	l0.793-4.668l-14.09-4.039l-0.555,1.822c0.738,0.211,1.266,0.474,1.582,0.79c0.373,0.265,0.553,0.528,0.553,0.793l-0.156,1.186
	l-2.77,9.581c-0.211,0.736-0.527,1.211-0.949,1.422c-0.318,0.211-1.031,0.184-2.137-0.078l-0.555,1.82l15.035,4.275L93.505,21.689z
	 M25.903,31.584c0.793,0.527,1.61,0.79,2.454,0.79c1.003,0.106,1.902,0,2.695-0.315c0.894-0.213,1.686-0.527,2.373-0.951
	c1.478-0.844,2.426-1.637,2.848-2.374c0.739-1.265,1.081-2.452,1.029-3.563c-0.104-0.951-0.237-1.609-0.396-1.979
	c-0.37-0.844-0.793-1.665-1.266-2.454l-2.928-5.146c-0.423-0.631-0.661-1.133-0.713-1.5c-0.106-0.373-0.055-0.688,0.158-0.954
	c0.211-0.37,0.659-0.737,1.345-1.106l-1.186-1.584l-5.306,3.088l0.714,1.821c0.159-0.106,0.423-0.212,0.79-0.319
	c0.421-0.053,0.74-0.053,0.95,0l0.635,0.555l0.71,1.031l3.565,6.411c0.262,0.634,0.393,1.214,0.393,1.741
	c0.161,0.791,0.027,1.609-0.393,2.455c-0.424,0.686-1.007,1.237-1.745,1.661c-0.473,0.317-1.186,0.476-2.134,0.476
	c-0.793,0-1.507-0.238-2.141-0.713l-1.106-1.107L23.055,20.5c-0.266-0.526-0.396-0.924-0.396-1.186
	c-0.052-0.317,0.027-0.633,0.24-0.951c0.474-0.475,0.949-0.816,1.421-1.027l-1.106-1.585l-7.601,4.354l0.793,1.74
	c1.003-0.579,1.713-0.79,2.137-0.633c0.317,0.054,0.711,0.449,1.189,1.188l4.274,7.284l0.79,0.948L25.903,31.584z M67.544,155.796
	c-0.607-0.127-1.383-0.363-2.277-0.691l-1.067-0.451l-0.487,1.15l1.101,0.459c0.987,0.363,1.797,0.609,2.51,0.758
	c0.633,0.098,1.705,0.145,3.273,0.145c0.801,0,1.52-0.104,2.211-0.342c0.271-0.135,0.943-0.445,2.012-0.938
	c-0.021,0.154,0.002-0.006,0.016-0.09l-0.488-1.063c-1.115,0.51-1.813,0.838-2.012,0.941c-0.486,0.164-1.07,0.246-1.738,0.246
	C69.114,155.921,68.075,155.878,67.544,155.796z M74.835,155.796L74.835,155.796C74.843,155.73,74.841,155.751,74.835,155.796z
	 M24.954,40.291c3.114-2.217,5.991-4.013,8.63-5.385c5.012-2.901,9.734-4.934,14.167-6.095c5.541-1.53,11.318-2.294,17.336-2.294
	c6.07,0,11.873,0.764,17.412,2.294c4.805,1.269,9.527,3.271,14.174,6.017c4.168,2.48,7.65,4.722,10.445,6.729l0.557,0.396
	l13.93-20.897l-0.396-0.317c-4.326-3.799-8.68-7.02-13.059-9.658c-5.963-3.639-12.324-6.33-19.076-8.073
	C81.524,1.002,73.716,0,65.642,0C57.517,0,49.73,1.002,42.291,3.007c-6.491,1.688-12.876,4.381-19.156,8.076
	c-2.533,1.476-5.963,3.641-10.29,6.491l-1.902,1.265l13.221,22.004L24.954,40.291z M13.554,18.682
	c3.803-2.586,7.205-4.751,10.214-6.492c6.491-3.693,12.769-6.359,18.836-7.994c7.495-1.953,15.175-2.93,23.038-2.93
	c7.863,0,15.541,0.977,23.035,2.93c6.598,1.741,12.879,4.406,18.838,7.994c4.326,2.588,8.443,5.622,12.348,9.104l-12.506,18.84
	c-2.059-1.424-5.381-3.563-9.973-6.415c-4.646-2.74-9.5-4.8-14.564-6.171c-5.701-1.531-11.607-2.295-17.732-2.295
	c-6.067,0-11.955,0.764-17.653,2.295c-4.536,1.212-9.366,3.271-14.485,6.171c-3.323,1.902-6.122,3.671-8.391,5.306L12.685,19.234
	L13.554,18.682z M45.062,132.664c0,0.529,0.5,1.137,1.503,1.822c1.001,0.793,1.531,1.396,1.583,1.82l0.078,0.238l0.159,0.156
	c0.424,0.316,1,0.316,1.741,0h0.079c-0.211,0.316-0.265,0.633-0.159,0.949c0.317,0.322,0.527,0.477,0.635,0.477
	c0.687,0.158,1.344,0.607,1.979,1.346c0.369,0.475,0.738,0.738,1.109,0.791c0.79,0,1.372-0.131,1.739-0.396l0.396-0.314
	c0.21,0.055,0.504,0.445,0.872,1.188c0.476,0.949,0.921,1.424,1.345,1.424l0.237-0.08h0.158c0.37-0.211,0.635-0.523,0.793-0.949
	c0.632,0.213,1.083,0.131,1.345-0.236c0.104-0.158,0.238-0.635,0.395-1.426l0.081-0.555l0.238-0.078h4.114l0.477,0.473
	c0.633,0.635,1.135,0.951,1.504,0.951l0.477-0.078c0.686-0.264,1.16-0.816,1.424-1.662l0.236-0.396l-0.555-0.477
	c-1.158-1.002-1.637-1.66-1.424-1.977c0.266-0.475,0.715-1.084,1.346-1.82c0.686-0.686,1.189-1.135,1.502-1.346v0.791
	c-0.209,1.162,0.055,2.322,0.793,3.484c0.371,0.631,0.58,1.213,0.635,1.74c0.104,0.58,0.658,0.871,1.664,0.871l0.711-0.082h0.238
	l0.156-0.154c0.264-0.215,0.502-0.689,0.713-1.426c0.316-1.109,0.846-1.768,1.582-1.98l0.24-0.156
	c0.631-0.529,1.344-0.609,2.135-0.24c0.74,0.373,1.322,0.449,1.744,0.24l0.236-0.082l0.555-0.551
	c0.791-0.793,1.477-1.189,2.059-1.189h0.236l0.158-0.08c2.584-1.105,3.719-2.611,3.404-4.512c-0.055-0.42-0.396-0.791-1.029-1.107
	l-0.635-0.316c-0.686-0.686-1.242-1.027-1.662-1.027c-0.371,0-0.635,0.076-0.793,0.236c-0.207,0.105-0.395,0.129-0.551,0.078
	c-0.318,0-0.793,0.213-1.428,0.635l-0.631,0.395l-0.479-0.871c-0.525-1.16-0.949-1.871-1.262-2.137
	c-0.373-0.318-1.004-0.475-1.902-0.475l-0.793,0.08c-0.207-0.371-0.207-0.871,0-1.506c0.16-0.686,0.451-1.105,0.875-1.266
	c0.631-0.266,0.844-0.895,0.631-1.9l-0.158-0.475c0.424-0.475,0.447-1.188,0.078-2.137l-0.238-0.555h0.557
	c1.371-0.105,2.375-0.449,3.008-1.029c1.053-0.896,1.449-1.715,1.184-2.453c-0.365-0.527-0.92-0.738-1.662-0.635l-0.789,0.08
	c-1.004,0-2.031-0.209-3.088-0.635c-1.053-0.42-1.635-0.842-1.738-1.266c-0.107-0.266,0.076-0.553,0.551-0.871l0.398-0.236
	l-0.16-0.473c0-0.107-0.104-0.266-0.316-0.477l-0.238-0.316l0.158-0.316l-0.076-0.316l-0.396-0.635
	c-0.16-0.209-0.24-0.395-0.24-0.553c0-0.21,0.135-0.396,0.396-0.554c0.582-0.422,0.926-0.922,1.031-1.504
	c0.158-0.635,0.369-1.031,0.631-1.188c0.633-0.37,0.977-1.001,1.029-1.899l0.555-1.107c0.527-0.635,0.764-1.241,0.715-1.82
	c0-1.428-0.557-2.137-1.666-2.137l-0.869,0.079l-0.475,0.158l-0.078-0.476h-0.557c-0.42,0-1.002-0.186-1.74-0.555l-0.158-0.158
	l-0.793,0.237l-0.949,0.158c-0.264,0-0.951,0.37-2.057,1.108l-0.951,0.712c-0.207,0-0.369-0.052-0.473-0.158
	c-0.215-0.313-0.133-0.869,0.236-1.662v-0.634l-0.236-1.978c0.266,0.263,0.5,0.395,0.711,0.395h0.395l0.158-0.237l0.398-0.078
	c0.686,0,1.105-0.318,1.264-0.949l0.158-0.08c0.477-0.317,0.715-0.713,0.715-1.188c0-0.791-0.162-1.346-0.477-1.662
	c-0.209-0.211-0.502-0.318-0.869-0.318l-1.506,0.08c-0.107,0-0.289-0.184-0.553-0.555c-0.316-0.686-0.502-1.107-0.553-1.266
	l0.078-0.396c0.104-0.896,0.027-1.449-0.238-1.662l-0.791-0.789c-0.422-0.424-0.82-0.635-1.188-0.635h-0.16
	c-0.422,0.053-0.818,0.557-1.187,1.504c-0.476,1.109-0.792,1.717-0.951,1.82l-0.313,0.158v0.396l0.076,0.793
	c0.159,0.579,0.186,0.975,0.081,1.186c-0.105,0.263-0.447,0.447-1.029,0.555l-0.476,0.077v0.556c0,1.16-0.184,1.979-0.553,2.453
	c-0.265,0.316-0.737,0.635-1.426,0.951l-1.031,0.475c-0.365,0.37-0.552,0.687-0.552,0.949c0,0.316,0.29,0.714,0.872,1.188
	c0.473,0.37,0.711,0.635,0.711,0.791c0,0.423-0.132,1.082-0.397,1.979c-0.792,2.217-1.131,4.303-1.029,6.254
	c0.055,1.265,0.609,1.902,1.664,1.902c0.263,0,0.766-0.107,1.504-0.32l1.029-0.234l0.235,0.078c0.793,1.318,2.084,2.373,3.881,3.166
	c0.74,0.266,1.133,0.502,1.189,0.713c0.262,0.525,0.736,1.004,1.422,1.424c0.58,0.42,0.928,0.793,1.031,1.109l-2.691-0.24
	c-0.527,0-0.896,0.133-1.109,0.398c-0.16,0.158-0.238,0.395-0.238,0.711c0.055,0.58-0.08,1.029-0.393,1.348
	c-0.16,0.211-0.295,0.314-0.398,0.314c-0.105,0-0.289-0.156-0.553-0.473c-0.318-0.531-0.766-0.898-1.348-1.111H63.82l-0.235,0.08
	l-0.872,0.635c-1.055,0.791-1.848,1.186-2.376,1.186c-0.737-0.316-2.058-1.979-3.954-4.988c-0.688-1.105-1.058-1.686-1.109-1.74
	l-0.396-0.314h-0.158c-0.369,0-0.635,0.264-0.793,0.791c-0.21,0.424-0.342,0.633-0.396,0.633c-0.156,0-0.342-0.078-0.554-0.238
	c-0.423-0.266-0.819-0.211-1.188,0.16c-0.316,0.369-0.262,1.926,0.159,4.67c0.424,1.793,0.582,3.086,0.476,3.879
	c-0.052,0.789-0.342,1.555-0.869,2.295l-0.556,1.027c-0.105,0.477,0,1.242,0.315,2.297l0.158,0.633l-0.474-0.158l-0.396,0.08
	l-0.158,0.236c-0.107,0.16-0.107,0.477,0,0.951c0.368,0.475,0.578,1.268,0.632,2.373l-0.474-0.395l-0.711-0.395l-0.161-0.16
	l-0.237,0.08c-0.476,0.053-0.977,0.449-1.504,1.188c-0.473,0.736-0.924,1.107-1.344,1.107l-0.317,0.082
	c-0.53,0.209-0.846,0.367-0.951,0.471c-0.263,0.211-0.37,0.529-0.314,0.951V132.664z M46.328,132.191l0.317-0.078
	c0.527,0,1.029-0.213,1.503-0.637c0.158-0.104,0.476-0.475,0.951-1.109l0.394-0.553l0.316,0.238
	c1.003,0.688,1.638,1.029,1.899,1.029l0.714-0.08v-0.635c0.052-1.051-0.08-2.082-0.397-3.084c0.16,0,0.346-0.105,0.556-0.316
	c0.262-0.318,0.262-1.002,0-2.061c-0.266-1-0.369-1.58-0.317-1.74l0.317-0.553c0.686-0.791,1.083-1.77,1.188-2.93
	c0-0.582-0.157-1.979-0.478-4.193c-0.315-1.373-0.474-2.455-0.474-3.248c0.897,0.371,1.556,0.158,1.979-0.631l0.476,0.789
	c1.211,1.848,1.979,3.01,2.292,3.484c0.899,1.107,1.662,1.793,2.296,2.059c0.741,0.262,1.927-0.184,3.565-1.348l0.554-0.314
	l0.394,0.473c0.527,0.635,1.057,0.951,1.584,0.951c0.475,0,0.922-0.209,1.346-0.635c0.527-0.736,0.766-1.449,0.713-2.137
	l2.613,0.238c0.631,0,1.055-0.131,1.266-0.396c0.211-0.316,0.289-0.633,0.234-0.949c-0.156-0.791-0.711-1.477-1.662-2.061
	c-0.576-0.42-0.893-0.734-0.947-0.947c-0.211-0.475-0.818-0.924-1.82-1.344c-1.533-0.527-2.641-1.4-3.327-2.613
	c-0.21-0.475-0.658-0.712-1.345-0.712c-0.476,0-0.948,0.078-1.427,0.237l-1.106,0.237c-0.211,0-0.317-0.187-0.317-0.555
	c-0.105-1.951,0.187-3.905,0.87-5.857c0.371-1.003,0.554-1.795,0.554-2.375c0-0.635-0.42-1.24-1.266-1.82l-0.158-0.079l0.634-0.316
	c0.79-0.37,1.373-0.739,1.741-1.108c0.579-0.686,0.899-1.688,0.951-3.008c1.265-0.42,1.741-1.451,1.424-3.086v-0.317
	c0.262-0.266,0.631-0.979,1.107-2.137l0.32-0.556l0.871,0.873l-0.162,1.344c0.055,0.422,0.318,1.055,0.793,1.9
	c0.527,0.737,1.055,1.109,1.582,1.109l1.506-0.161l0.076,0.714l-0.158,0.078c-0.367,0.371-0.58,0.662-0.631,0.871h-0.158
	c-0.369,0-0.635,0.053-0.789,0.158l-0.082-0.078c-0.475-0.476-0.844-0.713-1.107-0.713c-0.158,0-0.396,0.105-0.713,0.316
	c-0.264,0.421-0.238,1.637,0.078,3.641v0.159c-0.475,1.109-0.475,2.007,0,2.692c0.316,0.525,0.816,0.791,1.504,0.791
	c0.32,0,0.896-0.344,1.742-1.029c0.686-0.529,1.133-0.789,1.346-0.789c0.422,0,0.846-0.107,1.266-0.321l0.16-0.076
	c0.473,0.313,1.029,0.501,1.662,0.552c0.264,0.426,0.869,0.555,1.818,0.396l0.633-0.079c0.266,0,0.396,0.29,0.396,0.872
	c0,0.209-0.158,0.579-0.475,1.106c-0.473,0.739-0.738,1.296-0.791,1.661c-0.053,0.583-0.186,0.9-0.395,0.951
	c-0.582,0.317-1.004,1.004-1.266,2.061c0,0.262-0.162,0.475-0.479,0.631c-0.633,0.37-0.949,0.922-0.949,1.663
	c0,0.475,0.158,0.922,0.477,1.344l0.078,0.08c-0.158,0.371-0.055,0.791,0.318,1.268c-0.529,0.527-0.715,1.133-0.557,1.82
	c0.264,0.844,1.084,1.557,2.453,2.137c1.217,0.529,2.43,0.791,3.643,0.791l1.031-0.158h0.078c-0.32,0.475-0.555,0.766-0.713,0.869
	c-0.475,0.426-1.215,0.637-2.217,0.637l-1.822,0.236v0.475c-0.049,0.475,0.082,1.029,0.398,1.664l0.238,0.711
	c-0.479,0.475-0.555,1.107-0.238,1.898l0.08,0.236c-0.635,0.318-1.111,0.898-1.428,1.742c-0.262,0.793-0.342,1.533-0.234,2.219
	c0.104,0.791,0.498,1.186,1.184,1.186h0.951c0.58,0,0.951,0.08,1.109,0.238c0.158,0.16,0.475,0.711,0.951,1.662l0.473,1.109
	c0.211,0.369,0.527,0.553,0.947,0.553c0.32,0,0.793-0.211,1.428-0.633c0.424-0.264,0.713-0.396,0.873-0.396
	c0.471,0,0.816-0.105,1.027-0.316l0.236-0.078l0.793,0.633c0.316,0.316,0.658,0.525,1.027,0.635l0.238,0.156
	c0.158,1.213-0.688,2.244-2.531,3.088c-0.951,0-1.955,0.527-3.008,1.584l-0.4,0.395l-0.631-0.236
	c-1.266-0.635-2.4-0.529-3.402,0.316c-1.109,0.369-1.902,1.291-2.375,2.768l-0.238,0.715h-0.711c-0.105-0.529-0.371-1.162-0.793-1.9
	c-0.582-0.949-0.793-1.848-0.635-2.693c0.16-0.947,0.08-1.58-0.234-1.898c-0.264-0.262-0.529-0.396-0.793-0.396
	c-0.686,0-1.582,0.635-2.691,1.9c-1.004,1.109-1.506,1.77-1.506,1.979c-0.314,0.582-0.289,1.213,0.08,1.902
	c0.213,0.314,0.66,0.816,1.348,1.502c-0.211,0.318-0.369,0.475-0.477,0.475l-0.475-0.395c-0.527-0.635-1.029-0.949-1.506-0.949
	h-4.114c-0.686,0-1.165,0.236-1.427,0.711c-0.052,0.158-0.132,0.527-0.235,1.109v0.553l-0.637-0.475l-0.394,0.395
	c-0.052,0.055-0.211,0.266-0.476,0.635l-0.079,0.078l-0.238-0.395c-0.582-1.268-1.237-1.9-1.979-1.9c-0.21,0-0.447,0.08-0.713,0.238
	l-0.394,0.238l-0.555,0.156c-0.159,0-0.237,0.025-0.237,0.078l-0.394-0.396c-0.636-0.789-1.349-1.316-2.141-1.582
	c0.316-0.789,0.237-1.344-0.238-1.662c-0.421-0.209-0.975-0.156-1.662,0.158l-0.234,0.16c-0.266-0.688-0.951-1.424-2.061-2.219
	c-0.631-0.473-0.948-0.736-0.948-0.791V132.191z M76.194,147.306l-0.508-1.127c-2.242,1.002-3.52,1.572-3.764,1.684
	c-0.6,0.172-1.436,0.328-2.502,0.469c-0.84,0.121-1.824,0.234-2.924,0.336c-1.117,0.045-2.645,0-4.54-0.139
	c-2.145-0.137-3.743-0.248-4.797-0.342c-0.519-0.053-1.475,0.068-2.032,1.377c-0.211,0.512-0.348,1.143-0.424,1.943
	c-0.082,1.117-0.184,2.049-0.302,2.75c-0.199,1.08-0.397,1.43-0.47,1.531l0.989,0.74c0.29-0.385,0.512-1.039,0.697-2.059
	c0.129-0.75,0.234-1.717,0.316-2.859c0.063-0.654,0.176-1.186,0.331-1.568c0.287-0.666,0.612-0.639,0.788-0.621
	c1.055,0.09,2.666,0.207,4.82,0.344c1.933,0.139,3.506,0.184,4.7,0.135c1.158-0.104,2.166-0.219,3.021-0.346
	c1.125-0.148,1.996-0.311,2.736-0.525C72.657,148.892,73.942,148.316,76.194,147.306z"/>
</svg>
